<svg width="50" height="48" viewBox="136 48" fill="none" xmlns="http://www.w3.org/2000/svg">

<path fill-rule="evenodd" clip-rule="evenodd" d="M0.000244141 14.5237C0.000244141 21.9103 0.000244141 25.1574 0.000244141 32.5461C0.000244141 34.4622 1.0261 36.3422 2.72172 37.3172L18.3194 46.3231C19.998 47.3171 22.1324 47.3171 23.8089 46.3231L39.4066 37.3172C41.1022 36.3422 42.1281 34.46 42.1281 32.5461C42.1281 25.1574 42.1281 21.9124 42.1281 14.5237C42.1281 12.5928 41.0852 10.717 39.4066 9.75266L23.8111 0.746766C22.1324 -0.247294 19.998 -0.247294 18.3215 0.746766L2.72172 9.75266C1.04305 10.717 0.000244141 12.5928 0.000244141 14.5237Z" fill="#6639E4"/>
<path opacity="0.55" fill-rule="evenodd" clip-rule="evenodd" d="M0.996216 11.348C1.44132 10.7036 2.02419 10.1504 2.71939 9.74985L18.3191 0.746075C19.1585 0.247985 20.1123 0 21.0639 0C22.0177 0 22.9694 0.247985 23.8087 0.746075L39.4064 9.75196C40.1016 10.1526 40.6844 10.7036 41.1295 11.3501C40.4322 12.359 39.2792 13.0754 38.2915 13.6413C33.4653 16.4264 28.6222 19.1733 23.8066 21.9541C22.9673 22.4501 22.0135 22.7002 21.0618 22.7002C20.108 22.7002 19.1564 22.4522 18.317 21.9541C13.5057 19.1712 8.66256 16.4243 3.83639 13.6392C2.84657 13.0733 1.69354 12.3569 0.996216 11.348Z" fill="white"/>
<path opacity="0.2" fill-rule="evenodd" clip-rule="evenodd" d="M18.3191 21.9519C13.5057 19.1711 8.66253 16.4242 3.83635 13.6391C2.84653 13.0732 1.69351 12.3568 0.99618 11.3479C0.345484 12.3165 0.0105977 13.353 0 14.523C0 21.9095 0 25.1566 0 32.5453C0.0105977 33.7111 0.345484 34.7539 0.99618 35.7183C1.69351 34.7115 2.84653 33.993 3.83423 33.4271C8.66041 30.642 13.5035 27.8951 18.3191 25.1143C19.1478 24.6246 20.0868 24.3745 21.0279 24.3682C21.9923 24.3618 22.9609 24.6098 23.8108 25.1143C28.6264 27.8951 33.4695 30.642 38.2957 33.4271C39.2834 33.993 40.4385 34.7094 41.1337 35.7183C41.7993 34.7306 42.1193 33.692 42.1299 32.5453C42.1299 25.1566 42.1299 21.9116 42.1299 14.523C42.1193 13.3763 41.7972 12.3335 41.1337 11.35C40.4364 12.3568 39.2834 13.0753 38.2957 13.6412C33.4695 16.4263 28.6264 19.1732 23.8108 21.954C22.9778 22.4479 22.0304 22.6959 21.083 22.7001C20.125 22.7001 19.1648 22.4521 18.3191 21.9519Z" fill="white"/>
<path opacity="0.3" fill-rule="evenodd" clip-rule="evenodd" d="M9.73926 28.3785C9.73926 24.4065 9.73926 22.66 9.73926 18.688C9.74986 17.6452 10.2819 16.6511 11.2017 16.1234L19.5887 11.2802C20.4916 10.7461 21.6383 10.7461 22.5412 11.2802L30.9282 16.1234C31.8502 16.6532 32.3801 17.6452 32.3907 18.688C32.3907 22.66 32.3907 24.4065 32.3907 28.3785C32.3801 29.4234 31.8439 30.4175 30.9282 30.9431L22.5412 35.7863C21.6383 36.3204 20.4916 36.3204 19.5887 35.7863L11.2017 30.9452C10.2861 30.4175 9.74986 29.4255 9.73926 28.3785Z" fill="white"/>
</svg>
